<svg xmlns="http://www.w3.org/2000/svg" viewBox="0 0 84.74 127.34"><defs><style>.cls-1{fill:#2b317d;}.cls-2{fill:#1a8cb8;}</style></defs><title>Ресурс 2</title><g id="Слой_2" data-name="Слой 2"><g id="Слой_3" data-name="Слой 3"><path class="cls-1" d="M77.59,50.54,69.69,1a1.16,1.16,0,0,0-1.15-1H16.2A1.16,1.16,0,0,0,15,1L7.15,50.54a1.16,1.16,0,1,0,2.29.37L17.19,2.32H26V27.88H24.74A1.16,1.16,0,0,0,23.58,29v6.38a1.16,1.16,0,0,0,1.16,1.16H26v1.32H24.74a1.16,1.16,0,0,0-1.16,1.16v4.72a1.16,1.16,0,0,0,1.16,1.16h14a1.16,1.16,0,0,0,1.16-1.16V39.07a1.16,1.16,0,0,0-1.16-1.16H37.57V36.58h1.21a1.16,1.16,0,0,0,1.16-1.16V29a1.16,1.16,0,0,0-1.16-1.16H37.57V2.32h9.6V27.88H46A1.16,1.16,0,0,0,44.8,29v6.38A1.16,1.16,0,0,0,46,36.58h1.21v1.32H46a1.16,1.16,0,0,0-1.16,1.16v4.72A1.16,1.16,0,0,0,46,44.95H60a1.16,1.16,0,0,0,1.16-1.16V39.07A1.16,1.16,0,0,0,60,37.91H58.78V36.58H60a1.16,1.16,0,0,0,1.16-1.16V29A1.16,1.16,0,0,0,60,27.88H58.78V2.32h8.77L75.29,50.9a1.16,1.16,0,0,0,1.15,1h.18A1.16,1.16,0,0,0,77.59,50.54Zm-40-10.31v2.4H25.9v-2.4H37.62Zm-9.34-2.32V36.58h7v1.32Zm9.34-7.71v4.06H25.9V30.2h2.84a1.16,1.16,0,1,0,0-2.32h-.47V2.32h7V27.88H33.39a1.16,1.16,0,1,0,0,2.32h4.23ZM49.49,2.32h7V27.88h-7Zm9.34,37.9v2.4H47.12v-2.4h2.35a1.16,1.16,0,0,0,1.16-1.16s0-.08,0-.12v-.16l0-.06,0,0,0-.06,0,0,0-.05,0,0,0-.05,0,0,0,0,0,0,0,0,0,0,0,0,0,0,0,0,0,0L50,38l0,0-.05,0,0,0-.06,0h-.05l-.06,0h-.22V36.58h7V37.9H54.12a1.16,1.16,0,0,0,0,2.32h4.71Zm0-10v4.06H47.12V30.2H58.83Z"/><rect class="cls-2" x="18.37" y="93.94" width="21" height="27"/><path class="cls-1" d="M84.19,125.07a9.72,9.72,0,0,1-3.54-3.83,12.21,12.21,0,0,0-4.3-4.64,14.72,14.72,0,0,0-6.18-2.46,12.27,12.27,0,0,1-5.27-2.08,9.72,9.72,0,0,1-3.54-3.83,12.22,12.22,0,0,0-4.3-4.64,14.75,14.75,0,0,0-6.19-2.46A12.3,12.3,0,0,1,45.6,99a9.74,9.74,0,0,1-3.54-3.83A12,12,0,0,0,38.31,91V67.64H41a1.24,1.24,0,0,0,.73-2.25L27.18,54.78a1.24,1.24,0,0,0-1.46,0L11.13,65.39a1.24,1.24,0,0,0,.73,2.25h2.74V90.36h-8A6.56,6.56,0,0,0,0,96.91V126.1a1.24,1.24,0,0,0,2.49,0V126H6.63v.08a1.24,1.24,0,0,0,2.49,0V96.91a1.24,1.24,0,1,0-2.49,0V97H2.49v-.08a4.07,4.07,0,0,1,4.06-4.06h8v32H13.18a1.24,1.24,0,0,0,0,2.49h5.31a1.24,1.24,0,0,0,0-2.49H17.08v-4.15H35.82v4.15H34.41a1.24,1.24,0,0,0,0,2.49h5.31a1.24,1.24,0,0,0,0-2.49H38.31V94.22a10.38,10.38,0,0,1,1.6,2.25,12.23,12.23,0,0,0,4.3,4.65,14.75,14.75,0,0,0,6.19,2.46,12.3,12.3,0,0,1,5.27,2.08,9.73,9.73,0,0,1,3.54,3.83,12.22,12.22,0,0,0,4.3,4.64,14.72,14.72,0,0,0,6.18,2.46A12.27,12.27,0,0,1,75,118.66a9.72,9.72,0,0,1,3.54,3.83,12.21,12.21,0,0,0,4.3,4.64,1.24,1.24,0,1,0,1.39-2.06Zm-81.7-15H6.63v2.82H2.49Zm0,5.31H6.63v2.82H2.49Zm4.15-7.79H2.49v-2.82H6.63ZM2.49,123.53v-2.82H6.63v2.82Zm4.15-24v2.82H2.49V99.48Zm21.06-9.12v-6.8h2.82v6.8Zm-5.31,0v-6.8h2.82v6.8ZM33,83.56h2.82v6.8H33ZM26.45,57.32l10.77,7.83H15.68Zm9.37,10.32V81.07H17.08V67.64ZM17.08,83.56H19.9v6.8H17.08Zm0,34.66V92.85H35.82v25.37Z"/></g></g></svg>