<svg xmlns="http://www.w3.org/2000/svg" viewBox="0 0 107.67 83.46"><defs><style>.cls-1,.cls-3{fill:#1a8cb8;}.cls-2{fill:#2b317d;}.cls-3,.cls-4{stroke:#2c2e7f;stroke-miterlimit:10;stroke-width:2px;}.cls-4{fill:none;}</style></defs><title>Ресурс 1</title><g id="Слой_2" data-name="Слой 2"><g id="Слой_5" data-name="Слой 5"><path class="cls-1" d="M70,22c0,6.63-5.83,11.33-14.67,11.33s-16-5.37-16-12,7.16-12,16-12S70,15.37,70,22Z"/><path class="cls-2" d="M67.6,16.48h-.68v-.57a.69.69,0,0,0-1.37,0v.57h-.68a.78.78,0,0,0-.31.07c-1.94-4.24-6.49-7.38-12-8,0,0,0-.08,0-.12a1.78,1.78,0,0,0-1.37-1.63V6.12H49.82v.67a1.78,1.78,0,0,0-1.37,1.63s0,.08,0,.12c-7.34.84-13,6.15-13,12.56,0,7,6.74,12.68,15,12.68s15-5.68,15-12.68A10.83,10.83,0,0,0,65,17.64h.57v.58a.69.69,0,0,0,1.37,0v-.58h.68a.58.58,0,1,0,0-1.15Zm-11.77-6A14,14,0,0,1,60.18,13a12.45,12.45,0,0,1,1.27,1.23H56.9a16.59,16.59,0,0,0-3.52-4.36A15.4,15.4,0,0,1,55.83,10.48Zm1.5,11.2A13.11,13.11,0,0,1,56,26.86H51.19V21.68Zm-6.14-1.15V15.34H56a13.11,13.11,0,0,1,1.33,5.19ZM40.84,13a14,14,0,0,1,4.35-2.47,15.41,15.41,0,0,1,2.45-.65,16.61,16.61,0,0,0-3.52,4.36H39.56A12.44,12.44,0,0,1,40.84,13ZM37.9,16.61a11,11,0,0,1,.75-1.28h4.88a14.12,14.12,0,0,0-1.22,5.19H36.85A10,10,0,0,1,37.9,16.61Zm0,9a10,10,0,0,1-1.06-3.91h5.47a14.11,14.11,0,0,0,1.22,5.19H38.66A11,11,0,0,1,37.9,25.59Zm7.28,6.14a14,14,0,0,1-4.35-2.47A12.49,12.49,0,0,1,39.56,28h4.55a16.61,16.61,0,0,0,3.52,4.36A15.47,15.47,0,0,1,45.18,31.72Zm4.64.83q-.44-.33-.86-.68A15.62,15.62,0,0,1,45.63,28h4.19Zm0-5.69H45a13.12,13.12,0,0,1-1.33-5.19h6.14Zm0-6.34H43.68A13.12,13.12,0,0,1,45,15.34h4.82v5.19Zm0-6.34H45.63A15.62,15.62,0,0,1,49,10.33q.42-.35.86-.68Zm.68-5.76h-.68a.69.69,0,0,1,1.37,0h-.68Zm.68,1.23h0q.44.33.86.68a15.61,15.61,0,0,1,3.33,3.86H51.19V9.65Zm0,22.9V28h4.19A15.62,15.62,0,0,1,52,31.87Q51.63,32.23,51.19,32.55Zm9-3.3a14,14,0,0,1-4.35,2.47,15.45,15.45,0,0,1-2.45.65A16.6,16.6,0,0,0,56.9,28h4.55A12.51,12.51,0,0,1,60.18,29.25Zm2.93-3.66a11,11,0,0,1-.75,1.28H57.48a14.13,14.13,0,0,0,1.23-5.19h5.47A10,10,0,0,1,63.11,25.59ZM58.7,20.52a14.13,14.13,0,0,0-1.23-5.19h4.88a11,11,0,0,1,.75,1.28,10,10,0,0,1,1.06,3.91Z"/><path class="cls-2" d="M61.33,7.33a22.08,22.08,0,0,1,3.33-3.7,21.83,21.83,0,0,1,4-3,21.83,21.83,0,0,1-3.33,3.7A22.08,22.08,0,0,1,61.33,7.33Z"/><path class="cls-2" d="M71.33,16A19.63,19.63,0,0,1,76,15.5a19.41,19.41,0,0,1,4.67.5,19.41,19.41,0,0,1-4.67.5A19.63,19.63,0,0,1,71.33,16Z"/><path class="cls-2" d="M69.33,27.33a17,17,0,0,1,4.19,1.21,16.79,16.79,0,0,1,3.81,2.13,16.79,16.79,0,0,1-4.19-1.21A17,17,0,0,1,69.33,27.33Z"/><path class="cls-2" d="M37.33,6.67a22.08,22.08,0,0,1-4-3A21.83,21.83,0,0,1,30,0a21.83,21.83,0,0,1,4,3A22.08,22.08,0,0,1,37.33,6.67Z"/><path class="cls-2" d="M27.33,15.33a19.63,19.63,0,0,1-4.67.5,19.41,19.41,0,0,1-4.67-.5,19.41,19.41,0,0,1,4.67-.5A19.63,19.63,0,0,1,27.33,15.33Z"/><path class="cls-2" d="M29.33,26.67a17,17,0,0,1-3.81,2.13A16.79,16.79,0,0,1,21.33,30a16.79,16.79,0,0,1,3.81-2.13A17,17,0,0,1,29.33,26.67Z"/><ellipse class="cls-3" cx="54.33" cy="61.67" rx="52.33" ry="5.67"/><polygon class="cls-1" points="0 33.33 18.67 34.67 20 51 1.67 55.33 0 33.33"/><path class="cls-4" d="M106.67,61.67V76s-82,11.33-104,2.67L2,61.67"/><polyline class="cls-4" points="106.67 76 95.33 65.33 89.33 77.33 79.33 66 70.67 79.33 63.33 67.33 54.67 80.67 48 67.33 38.67 81.33 28.67 66.67 20 81.33 12.67 66 2.67 78.67"/><polygon class="cls-1" points="79 33.67 100.33 32.67 103.67 53 82 52 79 33.67"/><path class="cls-2" d="M88.67,57.33"/><polyline class="cls-4" points="81.33 56.67 81.33 30.67 99.33 28 101.33 58"/><polyline class="cls-4" points="23.33 56 21.33 32.67 2.67 30 2.67 58.67"/><ellipse class="cls-4" cx="12.67" cy="43.33" rx="5.33" ry="6"/><ellipse class="cls-4" cx="90" cy="40" rx="5.33" ry="6"/></g></g></svg>