<svg xmlns="http://www.w3.org/2000/svg" viewBox="0 0 131.25 88.8"><defs><style>.cls-1{fill:#1a8cb8;}.cls-2{fill:#2b317d;}</style></defs><title>Ресурс 3</title><g id="Слой_2" data-name="Слой 2"><g id="Слой_3" data-name="Слой 3"><ellipse class="cls-1" cx="53.48" cy="71.27" rx="10" ry="9.5"/><ellipse class="cls-1" cx="28.48" cy="71.77" rx="10" ry="9.5"/><path class="cls-2" d="M75.82,86.54H73.19L66.1,37.9a3.53,3.53,0,0,0-3.52-3.17H14.37a3.53,3.53,0,0,0-3.52,3.17L3.77,86.54H1.13a1.13,1.13,0,0,0,0,2.26H8.36a1.13,1.13,0,0,0,0-2.26H6l6.51-44.73H24.09V60.09a10.77,10.77,0,1,0,2.26,0V41.81H50.6V60.09a10.77,10.77,0,1,0,2.26,0V41.81H64.39L70.9,86.54H68.59a1.13,1.13,0,0,0,0,2.26h7.23a1.13,1.13,0,0,0,0-2.26ZM24.1,67.29a1.13,1.13,0,0,0,2.25,0,3.69,3.69,0,1,1-2.25,0Zm9.63,3.51a8.51,8.51,0,1,1-9.64-8.43V65a5.95,5.95,0,1,0,2.26,0V62.37A8.52,8.52,0,0,1,33.73,70.8ZM50.6,67.29a1.13,1.13,0,0,0,2.25,0,3.69,3.69,0,1,1-2.25,0Zm9.63,3.51a8.51,8.51,0,1,1-9.64-8.43V65a5.95,5.95,0,1,0,2.26,0V62.37A8.52,8.52,0,0,1,60.24,70.8ZM52.86,39.55v-.08a1.13,1.13,0,1,0-2.26,0v.08H26.35v-.08a1.13,1.13,0,1,0-2.26,0v.08H12.89l.2-1.35v-.05A1.28,1.28,0,0,1,14.37,37H62.58a1.28,1.28,0,0,1,1.27,1.16v.05l.2,1.35Z"/><path class="cls-2" d="M130.13,48.73h-1.48V6.68A6.72,6.72,0,0,0,121.91,0H84.41A6.7,6.7,0,0,0,77.7,6.68V48.73H76.19a1.12,1.12,0,0,0,0,2.24h5.2a1.12,1.12,0,0,0,0-2.24H79.94V7.8h8.54v9.15a3.47,3.47,0,1,0,2.24,0V7.8h8.62v9.15a3.47,3.47,0,1,0,2.24,0V7.8h8.66V48.73h-1.48a1.12,1.12,0,1,0,0,2.24H114a1.12,1.12,0,0,0,0-2.24h-1.48V41.6h7.58a1.12,1.12,0,0,0,0-2.24h-7.58V36h13.93V48.73h-1.48a1.12,1.12,0,0,0,0,2.24h5.2a1.12,1.12,0,0,0,0-2.24ZM90.85,20.23A1.23,1.23,0,1,1,89.62,19,1.23,1.23,0,0,1,90.85,20.23Zm10.85,0A1.23,1.23,0,1,1,100.47,19,1.23,1.23,0,0,1,101.71,20.23Zm-.13-14.67V5a1.12,1.12,0,0,0-2.24,0v.54H90.72V5a1.12,1.12,0,0,0-2.24,0v.54h-8.4a4.47,4.47,0,0,1,4.33-3.32h37.5a4.5,4.5,0,0,1,4.35,3.32Zm24.83,28.21H112.48V30.41h13.93Zm0-5.6H112.48V24.81h13.93Zm0-5.6H112.48V19.11h13.93Zm-13.93-5.71V13.51h13.93v3.36Zm13.93-5.6H112.48V7.8h13.93v3.48Z"/><path class="cls-2" d="M123.86,39.36h-.22a1.12,1.12,0,1,0,0,2.24h.22a1.12,1.12,0,1,0,0-2.24Z"/></g></g></svg>