<svg xmlns="http://www.w3.org/2000/svg" viewBox="0 0 162.25 92.25"><defs><style>.cls-1{fill:#09a1bb;}.cls-2{fill:none;}.cls-2,.cls-3{stroke:#2c2e7f;stroke-miterlimit:10;stroke-width:2px;}.cls-3{fill:#009fe3;}</style></defs><title>Ресурс 5</title><g id="Слой_2" data-name="Слой 2"><g id="Слой_6" data-name="Слой 6"><polygon class="cls-1" points="52.19 69.67 51.03 85.33 104.19 86.67 103.36 71.17 52.19 69.67"/><line class="cls-2" x1="47.28" y1="69.75" x2="103.53" y2="69.75"/><polyline class="cls-2" points="101.53 70 101.53 86 50.03 86 50.03 69.63"/><polyline class="cls-2" points="99.53 86.75 99.53 91.25 52.28 91.25 52.28 86.38"/><line class="cls-2" x1="55.53" y1="66" x2="94.78" y2="66"/><line class="cls-2" x1="52.03" y1="70" x2="51.53" y2="53"/><line class="cls-2" x1="99.78" y1="69.75" x2="99.78" y2="53"/><polygon class="cls-2" points="45.53 46.75 105.53 46.75 97.53 32 54.78 32 45.53 46.75"/><path class="cls-2" d="M45.53,46.92s-1,5.75,3.75,6,4-6,4-6,.5,6,4.5,6.25,4.75-6.25,4.75-6.25-.25,6.5,4.25,6.25,4.75-6.25,4.75-6.25-.75,6.25,4,6.25,4.25-6.25,4.25-6.25-.76,6.21,4.5,6.25,4.45-7.08,4.67-6.67c0,0-1.41,6.39,4.08,6.67s4.28-5,4-6c.32,1.82.38,6.22,4.75,5.75s3.75-6,3.75-6"/><line class="cls-2" x1="60.03" y1="32" x2="54.28" y2="46.25"/><line class="cls-2" x1="66.28" y1="32" x2="62.9" y2="46.5"/><line class="cls-2" x1="72.28" y1="32.5" x2="71.53" y2="46.75"/><line class="cls-2" x1="79.53" y1="31.75" x2="79.78" y2="46.75"/><line class="cls-2" x1="85.03" y1="32.25" x2="88.78" y2="46.5"/><line class="cls-2" x1="91.53" y1="31.5" x2="97.03" y2="47"/><ellipse class="cls-2" cx="93.4" cy="59.38" rx="2.13" ry="2.38"/><ellipse class="cls-2" cx="84.4" cy="59.63" rx="2.13" ry="2.38"/><ellipse class="cls-2" cx="75.65" cy="59.63" rx="2.13" ry="2.38"/><ellipse class="cls-2" cx="67.15" cy="59.63" rx="2.13" ry="2.38"/><ellipse class="cls-2" cx="58.4" cy="59.63" rx="2.13" ry="2.38"/><line class="cls-2" x1="58.53" y1="65.75" x2="58.4" y2="62"/><line class="cls-2" x1="67.03" y1="65.75" x2="67.15" y2="62"/><line class="cls-2" x1="76.03" y1="66.25" x2="75.65" y2="62"/><line class="cls-2" x1="84.28" y1="65.63" x2="84.28" y2="62.13"/><line class="cls-2" x1="93.53" y1="66" x2="93.4" y2="61.75"/><polygon class="cls-1" points="118.28 71.3 117.36 81.44 159.33 82.3 158.68 72.27 118.28 71.3"/><line class="cls-2" x1="114.4" y1="71.35" x2="158.81" y2="71.35"/><polyline class="cls-2" points="157.23 71.52 157.23 81.87 116.57 81.87 116.57 71.27"/><polyline class="cls-2" points="155.65 82.36 155.65 85.27 118.35 85.27 118.35 82.11"/><line class="cls-2" x1="120.91" y1="68.93" x2="151.9" y2="68.93"/><line class="cls-2" x1="118.15" y1="71.52" x2="117.75" y2="60.52"/><line class="cls-2" x1="155.85" y1="71.35" x2="155.85" y2="60.52"/><polygon class="cls-2" points="113.02 56.47 160.39 56.47 154.07 46.93 120.32 46.93 113.02 56.47"/><path class="cls-2" d="M113,56.58s-.79,3.72,3,3.88,3.16-3.88,3.16-3.88.39,3.88,3.55,4,3.75-4,3.75-4-.2,4.21,3.36,4,3.75-4,3.75-4-.59,4,3.16,4,3.36-4,3.36-4-.6,4,3.55,4,3.51-4.58,3.68-4.31c0,0-1.11,4.14,3.22,4.31s3.38-3.25,3.16-3.88c.25,1.18.3,4,3.75,3.72s3-3.88,3-3.88"/><line class="cls-2" x1="124.46" y1="46.93" x2="119.93" y2="56.15"/><line class="cls-2" x1="129.4" y1="46.93" x2="126.73" y2="56.31"/><line class="cls-2" x1="134.14" y1="47.25" x2="133.54" y2="56.47"/><line class="cls-2" x1="139.86" y1="46.77" x2="140.06" y2="56.47"/><line class="cls-2" x1="144.2" y1="47.09" x2="147.16" y2="56.31"/><line class="cls-2" x1="149.33" y1="46.6" x2="153.68" y2="56.63"/><ellipse class="cls-2" cx="150.81" cy="64.64" rx="1.68" ry="1.54"/><ellipse class="cls-2" cx="143.71" cy="64.8" rx="1.68" ry="1.54"/><ellipse class="cls-2" cx="136.8" cy="64.8" rx="1.68" ry="1.54"/><ellipse class="cls-2" cx="130.09" cy="64.8" rx="1.68" ry="1.54"/><ellipse class="cls-2" cx="123.18" cy="64.8" rx="1.68" ry="1.54"/><line class="cls-2" x1="123.28" y1="68.77" x2="123.18" y2="66.34"/><line class="cls-2" x1="129.99" y1="68.77" x2="130.09" y2="66.34"/><line class="cls-2" x1="137.1" y1="69.09" x2="136.8" y2="66.34"/><line class="cls-2" x1="143.61" y1="68.69" x2="143.61" y2="66.42"/><line class="cls-2" x1="150.91" y1="68.93" x2="150.81" y2="66.18"/><path class="cls-2" d="M20.5,3.5c0,.5-7,.75-9.25,3.5"/><path class="cls-2" d="M6.75,12s-3.25,4.75-3,7"/><path class="cls-2" d="M3.5,25.5s.25,6.5,2.75,9"/><path class="cls-2" d="M10.25,38.25A14.46,14.46,0,0,0,21,42.5"/><path class="cls-2" d="M26,42.5s2.5,0,8.5-3.25"/><path class="cls-2" d="M38,36.5s5.5-7.25,4.5-10.5"/><path class="cls-2" d="M42.5,21s0-5.5-3.5-8.75"/><path class="cls-2" d="M35,7.75S33.25,3,25.5,3.5"/><line class="cls-2" x1="23" y1="5.5" x2="23.17" y2="40"/><line class="cls-2" x1="34.75" y1="11" x2="11.25" y2="35"/><line class="cls-2" x1="6" y1="23" x2="40" y2="23.5"/><line class="cls-2" x1="10.75" y1="11" x2="34.25" y2="35.5"/><polyline class="cls-2" points="35.5 53 22.25 25.25 10 52.5"/><line class="cls-2" x1="4" y1="53" x2="40.25" y2="53"/><circle class="cls-3" cx="23" cy="3.5" r="2.5"/><circle class="cls-3" cx="37" cy="9.5" r="2.5"/><circle class="cls-3" cx="42.5" cy="23.5" r="2.5"/><circle class="cls-3" cx="36.5" cy="38" r="2.5"/><circle class="cls-3" cx="23.5" cy="42.5" r="2.5"/><circle class="cls-3" cx="8.5" cy="36.5" r="2.5"/><circle class="cls-3" cx="3.5" cy="23" r="2.5"/><path class="cls-3" d="M11,9.5a2.5,2.5,0,1,1-.73-1.77A2.5,2.5,0,0,1,11,9.5Z"/></g></g></svg>