<svg xmlns="http://www.w3.org/2000/svg" viewBox="0 0 169.91 102.44"><defs><style>.cls-1{fill:#09a1bb;}.cls-2{fill:#009fe3;}.cls-3,.cls-4,.cls-6{fill:none;stroke-miterlimit:10;}.cls-3,.cls-4{stroke:#2c2e7f;}.cls-3{stroke-width:3px;}.cls-4,.cls-6{stroke-width:2px;}.cls-5{fill:#2c2e7f;}.cls-6{stroke:#009fe3;}.cls-7{fill:#1a9dd9;}</style></defs><title>Ресурс 4</title><g id="Слой_2" data-name="Слой 2"><g id="Слой_5" data-name="Слой 5"><path class="cls-1" d="M5,84.11,16.3,69.86s5-2.25,7.25-1.25,122.75-.25,122.75-.25,8.5,1,8.5,4,2.5,12.25,2.5,12.25-.26,6.14-5,6.5c-26.61,2-119,2.61-144.25-1C8,90.11,4.3,88.11,5,84.11Z"/><polygon class="cls-2" points="126.8 34.03 140.8 27.36 142.8 61.03 129.13 63.03 126.8 34.03"/><path class="cls-2" d="M43.13,27.36l-14,4.33s-2,33-1.33,32l.67-1,13.67-1S52.13,33.36,43.13,27.36Z"/><circle class="cls-3" cx="12.13" cy="83.7" r="4.84"/><circle class="cls-3" cx="33.13" cy="84.03" r="4.84"/><circle class="cls-3" cx="53.13" cy="84.7" r="4.84"/><circle class="cls-3" cx="75.13" cy="86.03" r="4.84"/><circle class="cls-3" cx="95.8" cy="84.7" r="4.84"/><circle class="cls-3" cx="117.13" cy="86.03" r="4.84"/><circle class="cls-3" cx="138.46" cy="84.7" r="4.84"/><circle class="cls-3" cx="159.8" cy="84.7" r="4.84"/><circle class="cls-3" cx="148.46" cy="72.7" r="4.84"/><circle class="cls-3" cx="127.13" cy="72.7" r="4.84"/><circle class="cls-3" cx="105.8" cy="72.7" r="4.84"/><circle class="cls-3" cx="84.46" cy="72.03" r="4.84"/><circle class="cls-3" cx="65.13" cy="73.36" r="4.84"/><circle class="cls-3" cx="43.8" cy="74.03" r="4.84"/><circle class="cls-3" cx="22.46" cy="73.36" r="4.84"/><polygon class="cls-4" points="127.13 67.86 125.13 16.7 44.46 16.03 43.8 69.19 124.46 70.03 127.13 67.86"/><polyline class="cls-4" points="127.13 67.86 143.8 67.36 142.46 24.03 127.13 23.36 43.13 24.03 28.46 26.03 28.46 66.03 43.13 66.03"/><polyline class="cls-4" points="44.46 29.36 113.8 29.94 125.13 30.03"/><line class="cls-4" x1="125.13" y1="56.03" x2="44.46" y2="54.7"/><line class="cls-4" x1="43.13" y1="60.03" x2="125.13" y2="61.36"/><path class="cls-3" d="M1.8,100.7S-.87,94,9.8,93.36s9.33,2,10.67,6.67"/><path class="cls-3" d="M23.13,101.36s-2.67-6.67,8-7.33,8.67,2,10,6.67"/><path class="cls-3" d="M45.13,100.7s-2.67-6.67,8-7.33,8.67,2,10,6.67"/><path class="cls-3" d="M66.46,100.7s-2.67-6.67,8-7.33,8.67,3.33,10,8"/><path class="cls-3" d="M87.8,100s-2.67-6.67,8-7.33,8.67,3.33,10,8"/><path class="cls-3" d="M108.46,100.7s-2.67-6.67,8-7.33,8.67,3.33,10,8"/><path class="cls-3" d="M129.13,101.36s-2.67-6.67,8-7.33,8.67,3.33,10,8"/><path class="cls-3" d="M150.46,100s-2.67-6.67,8-7.33,8.67,3.33,10,8"/><polygon class="cls-5" points="110.29 31.09 70.75 55.58 69.85 54.15 109.06 29.14 110.29 31.09"/><path class="cls-5" d="M65.28,28.76a14.11,14.11,0,0,1,2.19,1.4l2.12,1.5,4.25,3,8.49,6,17,12L97.22,53l18.51-24.06,1.55,1.15L99.63,54.76,98.76,56l-1.21-.89L80.76,42.84,72.38,36.7l-4.19-3.07-2.1-1.53a14.11,14.11,0,0,1-2-1.63Z"/><polygon class="cls-5" points="57.93 28.59 73.34 53.48 71.75 54.5 55.41 30.22 57.93 28.59"/><ellipse class="cls-3" cx="135.13" cy="38.03" rx="4.67" ry="4"/><ellipse class="cls-3" cx="38.13" cy="39.7" rx="4.33" ry="5"/><ellipse class="cls-3" cx="36.13" cy="51.03" rx="3" ry="2.33"/><ellipse class="cls-3" cx="134.8" cy="52.03" rx="2.33" ry="3.33"/><line class="cls-6" x1="85.13" y1="10.7" x2="84.8" y2="0.03"/><line class="cls-6" x1="71.13" y1="10.03" x2="66.8" y2="4.03"/><line class="cls-6" x1="59.13" y1="11.7" x2="55.13" y2="7.7"/><line class="cls-6" x1="99.13" y1="8.03" x2="101.8" y2="2.36"/><path class="cls-6" d="M111.46,10.7"/><line class="cls-6" x1="111.46" y1="10.7" x2="117.8" y2="6.36"/><line class="cls-6" x1="19.46" y1="34.36" x2="12.46" y2="29.7"/><line class="cls-6" x1="19.13" y1="40.7" x2="9.46" y2="41.36"/><line class="cls-6" x1="20.46" y1="47.03" x2="13.13" y2="51.36"/><line class="cls-6" x1="148.8" y1="34.36" x2="154.13" y2="30.36"/><line class="cls-6" x1="150.8" y1="40.03" x2="162.46" y2="41.03"/><line class="cls-6" x1="149.8" y1="47.03" x2="157.13" y2="50.03"/><ellipse class="cls-7" cx="7.63" cy="8.78" rx="4.5" ry="5"/><path class="cls-5" d="M19.58,21.74a10,10,0,0,1-3.35-.06,10.56,10.56,0,0,1-3.14-1.09A13.58,13.58,0,0,1,8.26,16h0L8,15.58l.18-.42a16.9,16.9,0,0,0,1.06-3.52,7.23,7.23,0,0,0,0-3.35,1.83,1.83,0,0,0-.85-1A5.17,5.17,0,0,0,7,6.5a3,3,0,0,0-2.84.38,4.87,4.87,0,0,0-1.32,5.79,2.9,2.9,0,0,0,2.36,1.64A8.46,8.46,0,0,0,8.59,14l.58,1.77a10.21,10.21,0,0,1-4.25.41,5.13,5.13,0,0,1-2.2-.82,5.12,5.12,0,0,1-1.54-1.79,6.36,6.36,0,0,1-.5-4.42A6.55,6.55,0,0,1,3,5.36,5,5,0,0,1,7.57,4.7a7.06,7.06,0,0,1,2,1,5.37,5.37,0,0,1,.9.8,3.5,3.5,0,0,1,.63,1.14A8.89,8.89,0,0,1,11.13,12a29.7,29.7,0,0,1-1.08,3.92L10,15h0a10.3,10.3,0,0,0,3.75,4.4,8.69,8.69,0,0,0,2.71,1.11,7.7,7.7,0,0,0,2.89.11Z"/></g></g></svg>