<svg xmlns="http://www.w3.org/2000/svg" viewBox="0 0 396.07 194.87"><defs><style>.cls-1{fill:#e28689;}.cls-2{fill:#c32629;}.cls-2,.cls-3{fill-rule:evenodd;}.cls-3{fill:#8b2e2c;}.cls-4{fill:#1a1a18;}</style></defs><title>Asset 1</title><g id="Layer_2" data-name="Layer 2"><g id="Layer_1-2" data-name="Layer 1"><rect class="cls-1" x="47.18" y="28.77" width="41.04" height="78.2"/><rect class="cls-1" y="72.72" width="41.04" height="78.2"/><rect class="cls-1" x="47.66" y="110.53" width="78.04" height="41.04"/><rect class="cls-1" x="0.48" y="153.83" width="78.04" height="41.04"/><rect class="cls-1" x="83.53" y="153.83" width="78.04" height="41.04"/><path class="cls-2" d="M47.1,28.71h41v20c-16.81-1.17-30.18,2.22-41,9Z"/><path class="cls-2" d="M0,150.92l.16-78.2H29c-20.94,23.54-19.7,58.89-7.65,78.2Z"/><path class="cls-2" d="M.65,194.71l77.88.16v-8.79C54.2,186,31.64,168.82,23.08,153.83H.48Z"/><path class="cls-2" d="M161.49,194.55l-77.88.16v-8.6c26.51-.13,48-18.18,56.17-32.28l21.87-.16Z"/><path class="cls-3" d="M181.73,35.36A21.65,21.65,0,1,1,160.08,57a21.65,21.65,0,0,1,21.65-21.65M156,33.17a35.07,35.07,0,0,1,13-8.91l.47-8.41,5.68-1.34L179.22,22q1.24-.09,2.51-.09A35,35,0,0,1,196.3,25l6.49-5.61,4.84,3.27-2.63,8a35.22,35.22,0,0,1,9.52,13.67l8.24,0L224.21,50l-7.46,4.19c.07.92.13,1.84.13,2.78a35,35,0,0,1-3.32,14.94L219,78.26l-3.24,4.86-7.95-2.6a35.21,35.21,0,0,1-13.64,9.35l-.72,8.53-5.74,1.07-3.57-7.4q-1.21.08-2.45.08a35,35,0,0,1-15.18-3.44L160,94.53l-4.86-3.24,2.82-8.42a34.72,34.72,0,0,1-9.13-13.36l-8.54-.5L139,63.31l7.62-3.94q-.07-1.17-.06-2.36a35.69,35.69,0,0,1,3.52-15.18M156,33.17l-8.16-2.74L144.6,35.3l5.51,6.53"/><path class="cls-3" d="M181.62,43.7A13.29,13.29,0,1,1,168.33,57,13.29,13.29,0,0,1,181.62,43.7"/><path class="cls-3" d="M123.44,16.93a8.67,8.67,0,1,1-8.67,8.67,8.67,8.67,0,0,1,8.67-8.67"/><path class="cls-3" d="M126.1,13A12.91,12.91,0,1,1,110.85,23,12.92,12.92,0,0,1,126.1,13M111.31,8.61A20.92,20.92,0,0,1,120,5L121.27.1l3.48-.1,1.49,4.84q.74.1,1.48.25a20.88,20.88,0,0,1,8.14,3.59l4.47-2.5,2.44,2.49L140.25,13a21,21,0,0,1,3.93,9.13l4.81,1,.17,3.48-4.86,1.55c-.07.55-.14,1.09-.26,1.64a20.88,20.88,0,0,1-3.73,8.33l2.45,4.35L140.28,45l-4.33-2.47a21,21,0,0,1-9.09,3.83l-1.44,4.9-3.48-.06-1.2-4.75q-.72-.1-1.44-.24a20.88,20.88,0,0,1-8.46-3.83l-4.54,2.61-2.45-2.47,2.66-4.58a20.71,20.71,0,0,1-3.73-8.9l-4.93-1.31,0-3.48,4.93-1.39q.1-.69.25-1.38A21.29,21.29,0,0,1,106.84,13m4.47-4.36L106.87,6,104.4,8.49,106.84,13"/><path class="cls-3" d="M114.28,60.24a5.05,5.05,0,1,1-6.39,3.19,5.05,5.05,0,0,1,6.39-3.19"/><path class="cls-3" d="M116.48,58.54a7.53,7.53,0,1,1-10.29,2.74,7.53,7.53,0,0,1,10.29-2.74m-7.36-5.15a12.19,12.19,0,0,1,5.47-.41l1.61-2.45,1.94.59-.07,3q.39.19.77.41A12.17,12.17,0,0,1,122.67,58l2.93-.56.89,1.83-2.19,1.95a12.24,12.24,0,0,1,.48,5.77l2.47,1.45-.55,2-3,0c-.14.29-.28.58-.45.86a12.17,12.17,0,0,1-3.6,3.91l.55,2.86-1.82.9-1.94-2.17a12.24,12.24,0,0,1-5.73.44L109,79.56l-1.91-.68.22-2.85q-.38-.19-.75-.4a12.17,12.17,0,0,1-4-3.68l-3,.6-.9-1.82,2.32-2a12.08,12.08,0,0,1-.42-5.61l-2.48-1.64.62-1.93,3,.14q.18-.36.39-.72a12.41,12.41,0,0,1,3.71-4m3.28-1.58-2-2.25-1.82.9.52,2.92"/><path class="cls-4" d="M348.67,154.26q0,14.63,5.61,23t14.11,8.42q8.64,0,14.22-8.49t5.59-24.12a56.11,56.11,0,0,0-2.4-17.23,25.25,25.25,0,0,0-7-11.43,15.25,15.25,0,0,0-10.31-4q-8.14,0-14,7.81t-5.86,26.06m-7.89-.17q0-20.14,7.73-31.52t20-11.39a22,22,0,0,1,14.43,5.35q6.42,5.37,9.8,14.93a65,65,0,0,1,3.37,21.69,63.66,63.66,0,0,1-3.54,22q-3.55,9.72-10.06,14.71a22.61,22.61,0,0,1-14,5,21.71,21.71,0,0,1-14.59-5.52,33.91,33.91,0,0,1-9.75-15.06A61,61,0,0,1,340.78,154.09Zm-55.66-41.48H330.6v80.88h-7.7V122.15H292.77v71.33h-7.65Zm-47,0h7.65V148c3.5,0,6-.94,7.38-2.84s3.23-6.44,5.44-13.65a88.06,88.06,0,0,1,4-11.22,15.13,15.13,0,0,1,4.43-5.52,10.16,10.16,0,0,1,6.35-2.24,40.49,40.49,0,0,1,4.66.11v9.26l-1.55-.06-1.53-.06a6.23,6.23,0,0,0-5.44,2.49q-1.82,2.49-4.15,10.6-2.91,10.25-4.93,12.94a16.18,16.18,0,0,1-4.81,4.27q5.59,2.15,11,14.44l11.91,26.93H269l-9.67-22c-2.65-6.06-4.89-10.22-6.66-12.5a8.46,8.46,0,0,0-6.95-3.39v37.85h-7.65Zm-67.65,80.88V112.61H182l13.68,57.26c1.27,5.33,2.19,9.32,2.76,12q1-4.41,3.08-13l13.84-56.27h10.3v80.88h-7.38v-67.7l-16.8,67.7h-6.91l-16.72-68.84v68.84Z"/></g></g></svg>